<svg id="グループ_10" data-name="グループ 10" xmlns="http://www.w3.org/2000/svg" xmlns:xlink="http://www.w3.org/1999/xlink" width="148.628" height="55.646" viewBox="0 0 148.628 55.646">
  <defs>
    <clipPath id="clip-path">
      <rect id="長方形_966" data-name="長方形 966" width="148.628" height="55.646" fill="#fff"/>
    </clipPath>
  </defs>
  <path id="パス_35" data-name="パス 35" d="M92.59,4.428h2.461l8.342,26.592h-2.462Zm19.049,0H114.1l8.851,26.592H120.49ZM130.285.669l-7.029,24.6L115.71.669h-7.752l2.479,8.062-6.1,17.107L96.794.669h-7.8l10.7,34.111h7.7l6.046-17.469,5.892,17.469h7.7L137.779.669Z" transform="translate(-20.213 -0.152)" fill="#fff"/>
  <g id="グループ_9" data-name="グループ 9">
    <g id="グループ_8" data-name="グループ 8" clip-path="url(#clip-path)">
      <path id="パス_36" data-name="パス 36" d="M8.1,54.816h3.949a5.568,5.568,0,1,1,0,11.135H8.1Zm2.109,1.619v7.9H11.95c2.278,0,3.493-1.434,3.493-3.948s-1.215-3.948-3.493-3.948Z" transform="translate(-1.84 -12.451)" fill="#fff"/>
      <path id="パス_37" data-name="パス 37" d="M36.178,54.816h2.159l2.717,8.672L43.18,57.65l-.912-2.834h2.143l2.75,8.536,2.581-8.536h2.075L48.19,65.951H46.081l-2.04-5.973-2.126,5.973H39.806Z" transform="translate(-8.217 -12.451)" fill="#fff"/>
      <path id="パス_38" data-name="パス 38" d="M65.337,54.816h2.108l4.1,11.135H69.3l-.793-2.362h-4.3l-.81,2.362H61.254Zm-.658,7.238h3.374l-1.688-4.943Z" transform="translate(-13.913 -12.451)" fill="#fff"/>
      <path id="パス_39" data-name="パス 39" d="M75.43,64.349l1.282-1.4a3.59,3.59,0,0,0,2.986,1.4c1.3,0,1.974-.624,1.974-1.518,0-.726-.455-1.249-1.535-1.485l-1.366-.3c-1.856-.4-2.817-1.468-2.817-2.952,0-1.975,1.7-3.493,4.133-3.493a4.64,4.64,0,0,1,3.745,1.586L82.5,57.516a2.971,2.971,0,0,0-2.5-1.2c-1.231,0-1.923.658-1.923,1.536,0,.793.556,1.231,1.519,1.451l1.366.3C82.751,60,83.8,61.06,83.8,62.595c0,1.957-1.687,3.476-4.269,3.476a5.113,5.113,0,0,1-4.1-1.721" transform="translate(-17.133 -12.401)" fill="#fff"/>
      <rect id="長方形_965" data-name="長方形 965" width="2.109" height="11.135" transform="translate(68.66 42.365)" fill="#fff"/>
      <path id="パス_40" data-name="パス 40" d="M97.359,54.816h2.108l4.1,11.135h-2.244l-.793-2.362h-4.3l-.81,2.362H93.276ZM96.7,62.054h3.374l-1.688-4.943Z" transform="translate(-21.187 -12.451)" fill="#fff"/>
      <path id="パス_41" data-name="パス 41" d="M112.351,60.333a5.521,5.521,0,0,1,5.432-5.735,4.438,4.438,0,0,1,4.268,2.665l-1.686,1.1a2.82,2.82,0,0,0-2.717-1.975c-1.873,0-3.054,1.57-3.054,3.948s1.181,3.948,3.054,3.948a2.82,2.82,0,0,0,2.717-1.974l1.686,1.1a4.438,4.438,0,0,1-4.268,2.666,5.522,5.522,0,0,1-5.432-5.737" transform="translate(-25.519 -12.401)" fill="#fff"/>
      <path id="パス_42" data-name="パス 42" d="M126.352,63.366a3.967,3.967,0,1,1,3.965,3.83,3.976,3.976,0,0,1-3.965-3.83m5.956,0a2,2,0,1,0-1.991,2.227,2.053,2.053,0,0,0,1.991-2.227" transform="translate(-28.699 -13.527)" fill="#fff"/>
      <path id="パス_43" data-name="パス 43" d="M138.281,67.571a1.181,1.181,0,1,1,1.181,1.164,1.149,1.149,0,0,1-1.181-1.164" transform="translate(-31.409 -15.084)" fill="#fff"/>
      <path id="パス_44" data-name="パス 44" d="M144,65.866l1.485.574L143.4,70.607l-1.114-.455Z" transform="translate(-32.318 -14.961)" fill="#fff"/>
      <path id="パス_45" data-name="パス 45" d="M153.958,54.816h2.109V64.3h4.842v1.653h-6.951Z" transform="translate(-34.97 -12.451)" fill="#fff"/>
      <path id="パス_46" data-name="パス 46" d="M164.367,63.557v-3.02h-1.332V59.255h.151c1.2,0,1.687-.759,1.687-1.856V56.74h.135a3.69,3.69,0,0,0,1.282-.134v2.446h2.75v1.485h-2.75v3.307c0,.826.4,1.2.927,1.2a1.345,1.345,0,0,0,1.148-.827l1.316.843a2.626,2.626,0,0,1-2.514,1.468,2.7,2.7,0,0,1-2.8-2.969" transform="translate(-37.031 -12.857)" fill="#fff"/>
      <path id="パス_47" data-name="パス 47" d="M172.227,62.255a3.742,3.742,0,0,1,3.475-3.813,2.686,2.686,0,0,1,2.464,1.62V54.781h.641a3.883,3.883,0,0,0,1.282-.118V65.916h-1.923V64.465a2.669,2.669,0,0,1-2.464,1.62,3.747,3.747,0,0,1-3.475-3.83m5.989,0a2.1,2.1,0,0,0-1.99-2.21,2.227,2.227,0,0,0,0,4.436,2.12,2.12,0,0,0,1.99-2.227" transform="translate(-39.119 -12.416)" fill="#fff"/>
      <path id="パス_48" data-name="パス 48" d="M30.209,60.2h-.965v1.621h.965v.725a1.418,1.418,0,0,1-.742,1.451,3.45,3.45,0,0,1-1.553.321c-2.244,0-3.34-1.569-3.34-3.931,0-2.463,1.2-4,3.1-4a2.927,2.927,0,0,1,2.784,1.974l1.7-1.08A4.594,4.594,0,0,0,27.8,54.6a5.74,5.74,0,0,0,.185,11.472,5.88,5.88,0,0,0,4.285-1.636V60.2Z" transform="translate(-5.072 -12.401)" fill="#fff"/>
      <path id="パス_49" data-name="パス 49" d="M0,.668H12.663c10.492,0,17.573,6.977,17.573,17.056S23.154,34.779,12.663,34.779H0ZM7.753,6.509v22.43h4.6c6.306,0,9.665-3.979,9.665-11.215S18.658,6.509,12.353,6.509Z" transform="translate(0 -0.152)" fill="#fff"/>
      <path id="パス_50" data-name="パス 50" d="M162.634.669h7.648L182.739,34.78h-8.166L172.4,28.061H160.2l-2.171,6.719h-7.855Zm-.828,21.862H170.8l-4.5-13.49Z" transform="translate(-34.111 -0.152)" fill="#fff"/>
      <path id="パス_51" data-name="パス 51" d="M68.245,17.056H64.854V22.9h3.391v.568c0,2.067-.568,3.618-2.223,4.5a8.713,8.713,0,0,1-4.134.879c-6.2,0-9.2-4.187-9.2-11.111,0-7.081,3.256-11.268,8.528-11.268,3.36,0,6.048,1.706,7.959,5.633l6.15-4.082C72.948,2.894,67.832,0,61.733,0,51.861,0,44.471,7.65,44.471,17.676c0,9.871,7.132,17.468,17.675,17.468,5.427,0,10.6-1.964,13.592-5.272V17.056Z" transform="translate(-10.101 0)" fill="#fff"/>
    </g>
  </g>
</svg>
